<?xml version="1.0" encoding="UTF-8"?>
<!DOCTYPE svg PUBLIC "-//W3C//DTD SVG 1.1//EN" "http://www.w3.org/Graphics/SVG/1.1/DTD/svg11.dtd">
<!-- Creator: CorelDRAW 2019 (64-Bit) -->
<svg xmlns="http://www.w3.org/2000/svg" xml:space="preserve" width="100%" height="100%" version="1.1" style="shape-rendering:geometricPrecision; text-rendering:geometricPrecision; image-rendering:optimizeQuality; fill-rule:evenodd; clip-rule:evenodd"
viewBox="0 0 6889.76 4015.06"
 xmlns:xlink="http://www.w3.org/1999/xlink">
 <defs>
  <style type="text/css">
   <![CDATA[
    .fil1 {fill:none}
    .fil5 {fill:#3E4095}
    .fil2 {fill:#3E4095}
    .fil4 {fill:#3E4095;fill-rule:nonzero}
    .fil3 {fill:#3E4095;fill-rule:nonzero}
    .fil0 {fill:#00AFEF;fill-rule:nonzero}
    .fil6 {fill:#690102;fill-rule:nonzero}
    .fil7 {fill:#727376;fill-rule:nonzero}
   ]]>
  </style>
 </defs>
 <g id="Layer_x0020_1">
  <metadata id="CorelCorpID_0Corel-Layer"/>
  <g id="_1581834560">
   <path class="fil0" d="M6180.53 2120.26c72.83,0 145.39,-39.33 184.47,-121.35 42.99,61.64 115.74,76.44 169.69,76.44 104.31,0 141.7,-113.58 141.7,-216.22 0,-22.37 -15.02,-176.94 -46.58,-176.94 -20.64,0 -46.6,121.08 -46.6,132.26 0,26.22 16.72,42.94 18.7,70.91 -16.78,16.72 -41.07,25.96 -72.82,25.96 -37.16,0 -111.89,-20.43 -121.1,-87.65 0,-1.69 1.94,-20.39 1.94,-41.02 0,-20.37 -1.94,-41 -24.3,-41 -22.3,0 -29.81,41 -46.58,95.12 -16.71,59.7 -80.1,104.39 -156.52,104.39 -150.97,0 -104.39,-208.7 -216.28,-208.7 -184.46,0 -350.42,136.12 -488.29,352.34 -61.63,96.87 -156.57,210.43 -240.51,210.43 -33.48,0 -68.97,76.49 -68.97,130.61 0,27.9 9.26,50.19 35.49,50.19 115.5,0 205.02,-115.5 262.8,-201.18 219.89,-326.19 354.09,-365.27 450.95,-365.27 121.08,0 57.78,210.69 262.8,210.69z"/>
   <path class="fil0" d="M6335.18 1160.15c-1.74,-1.72 -3.66,-1.72 -5.6,-1.72 -9.25,0 -72.56,72.56 -94.93,109.97 -3.86,3.59 -3.86,5.58 -3.86,7.28 0,26.2 91.53,102.62 119.43,102.62 9.19,0 83.94,-93.19 96.79,-109.9 3.91,-3.91 5.59,-5.6 5.59,-7.52 0,-1.92 -1.67,-3.67 -3.59,-5.6 -29.89,-11.18 -93.2,-61.38 -113.83,-95.12zm11.36 397.03c20.39,33.48 89.34,85.68 113.58,85.68 9.26,0 84.01,-93.2 96.86,-109.92 1.92,-3.66 3.86,-5.58 3.86,-7.33 0,-1.94 0,-3.85 -3.86,-5.53 -29.64,-11.43 -91.26,-61.7 -113.58,-95.19 -1.92,-1.92 -1.92,-1.92 -3.66,-1.92 -9.44,0 -63.56,61.63 -89.52,98.79 -33.5,-16.77 -84.01,-59.7 -102.47,-89.35 -1.92,-1.92 -3.84,-1.92 -5.78,-1.92 -9.25,0 -72.56,72.56 -94.93,109.97 -3.85,3.61 -3.85,5.58 -3.85,7.52 0,25.96 91.46,102.39 119.41,102.39 7.52,0 57.73,-59.72 83.94,-93.2z"/>
   <path class="fil0" d="M5203.97 2476.02c25.96,0 61.38,-82 61.38,-135.88 0,-26.22 -7.52,-44.93 -29.89,-44.93 -68.9,0 -100.46,-63.3 -100.46,-145.39 0,-80.08 27.9,-143.4 27.9,-186.39 0,-11.11 -5.53,-14.79 -13.05,-14.79 -39.08,0 -84.01,165.78 -84.01,290.77 0,123.02 48.54,236.6 138.13,236.6z"/>
   <path class="fil0" d="M4527.15 2275.52c0,244.17 85.68,484.68 482.7,484.68 162.15,0 277.65,-52.19 398.75,-125.01 26.22,-12.85 67.22,-42.67 67.22,-55.79 0,-7.5 -7.52,-9.25 -26.15,-9.25 -46.6,0 -182.55,22.37 -350.48,22.37 -277.67,0 -508.74,-113.82 -508.74,-346.81 0,-264.57 300.04,-467.72 533.02,-518.18 54.12,-11.19 119.35,-20.38 141.72,-20.38 24.24,0 39.08,-48.52 52.19,-85.93 9.19,-24.04 24.23,-59.46 24.23,-74.5 0,-7.26 -1.92,-11.19 -37.33,-11.19 -25.98,0 -164.09,15.04 -262.87,15.04 -93.2,0 -190,-13.1 -313.09,-13.1 -80.08,0 -160.17,25.96 -182.72,83.74 -31.56,80.33 -44.67,147.31 -44.67,207.03 0,7.5 1.92,9.25 5.58,9.25 3.86,0 7.52,-3.67 9.44,-5.58 5.6,-9.26 7.28,-18.46 22.37,-53.93 18.65,-50.46 70.84,-63.56 128.62,-63.56 70.64,0 130.35,0 184.46,1.92 -246.11,150.99 -324.27,363.6 -324.27,559.18z"/>
   <path class="fil0" d="M4140.73 1005.52c-29.89,48.59 -46.6,109.97 -46.6,162.15 0,39.08 14.8,76.42 33.48,113.82l33.74 272.07c18.46,160.18 55.8,475.19 55.8,525.7 0,14.78 3.66,25.96 20.38,25.96 37.41,0 52.18,-136.18 52.18,-191.97 0,-41.02 -3.59,-80.1 -7.26,-119.18 -11.18,-115.75 -28.14,-287.11 -42.94,-404.6 54.12,-35.4 78.34,-128.6 78.34,-141.7 0,-22.37 -24.22,-55.87 -44.86,-74.5 -41,-39.08 -85.67,-84.01 -96.85,-139.8 -1.94,-9.24 -9.21,-39.08 -20.64,-39.08 -5.58,0 -11.19,3.61 -14.78,11.13z"/>
   <path class="fil0" d="M3916.94 1810.78c0,-97.04 0,-158.44 -35.42,-445.6 22.54,-37.09 70.89,-87.6 70.89,-132.21 0,-16.78 -13.11,-33.55 -22.37,-48.59 -33.48,-57.72 -96.8,-119.16 -132.28,-178.87 -5.58,-7.52 -13.1,-11.13 -20.62,-11.13 -14.78,0 -35.42,117.43 -35.42,143.39 0,37.41 24.3,93.2 28.15,117.49 14.79,117.49 20.39,167.7 35.42,287.11 7.34,76.42 22.37,210.69 33.5,301.9 0,11.19 18.7,16.77 27.95,16.77 20.38,0 50.21,-20.38 50.21,-50.26z"/>
   <path class="fil0" d="M3838.78 1844.28c-13.05,70.89 -82.02,83.74 -143.64,83.74 -20.39,0 -44.68,-3.66 -61.39,-12.85 -7.52,-1.92 -13.11,-3.86 -18.7,-3.86 -37.15,0 -65.29,54.12 -65.29,100.72 0,27.9 9.44,54.1 29.87,67.22 31.75,20.37 68.91,23.98 115.52,23.98 72.81,0 147.31,-41.02 175.2,-85.68 33.73,-50.21 46.6,-145.33 46.6,-206.78 0,-13.1 -14.8,-18.63 -24.23,-18.63 -20.38,0 -53.93,25.98 -53.93,52.13z"/>
   <path class="fil0" d="M3579.62 2079.26c20.64,11.11 37.35,16.71 54.12,16.71 37.33,0 57.71,-35.42 57.71,-76.42 0,-39.08 -18.63,-85.68 -57.71,-104.39 -113.83,-54.12 -78.41,-184.71 -182.8,-184.71 -117.42,0 -223.48,59.7 -309.41,134.26 -104.39,89.54 -96.87,318.86 -102.45,404.54 1.99,50.26 26.21,160.16 46.6,160.16 3.66,0 7.5,-1.67 9.24,-11.11 5.6,-27.96 9.44,-74.55 9.44,-128.67 0,-109.92 14.8,-255.3 72.58,-290.72 80.33,-48.33 160.43,-89.35 248.03,-89.35 94.93,0 82.07,124.76 154.63,169.69z"/>
   <path class="fil0" d="M3326.2 1438.01c20.43,33.48 89.34,85.66 113.63,85.66 9.44,0 83.94,-93.19 96.8,-109.9 1.94,-3.91 3.91,-5.6 3.91,-7.52 0,-1.99 0,-3.67 -3.91,-5.6 -29.57,-11.18 -91.26,-61.44 -113.58,-95.12 -1.92,-1.72 -1.92,-1.72 -3.66,-1.72 -9.44,0 -63.31,61.38 -89.52,98.78 -33.5,-16.78 -83.76,-59.7 -102.39,-89.54 -1.99,-1.99 -3.91,-1.99 -5.6,-1.99 -9.49,0 -72.81,72.83 -95.12,110.23 -3.66,3.59 -3.66,5.58 -3.66,7.26 0,26.22 91.28,102.64 119.18,102.64 7.5,0 57.76,-59.7 83.94,-93.18z"/>
   <path class="fil0" d="M2701.77 1915.17c-7.5,-1.92 -13.1,-3.86 -18.69,-3.86 -37.16,0 -65.31,54.12 -65.31,100.72 0,27.9 9.44,54.1 29.89,67.22 27.9,16.71 52.11,25.96 104.31,25.96 42.99,0 98.78,-16.77 132.53,-33.48 20.38,107.98 37.15,175.2 87.6,283.2 16.77,37.39 55.85,91.51 91.26,91.51 20.38,0 27.9,-13.1 29.82,-28.15 1.74,-5.6 1.74,-11.18 1.74,-14.85 0,-42.94 -29.64,-123.02 -55.85,-134.2 -39.08,-20.62 -102.39,-177.14 -102.39,-221.8 126.68,-65.31 162.1,-199.51 162.1,-333.71 0,-25.98 0,-52.18 -1.92,-78.16 -5.6,-70.89 -70.91,-138.11 -139.8,-138.11 -31.56,0 -57.79,11.18 -74.5,41.07 -26.2,44.86 -27.9,134.2 -27.9,199.44 0,63.37 3.61,115.55 7.28,166.01 -37.16,16.77 -70.64,24.04 -98.79,24.04 -20.37,0 -44.68,-3.66 -61.39,-12.85zm212.36 -33.74c-1.72,-14.78 -7.33,-61.38 -7.33,-91.26 0,-46.6 11.19,-100.7 46.6,-100.7 11.19,0 78.16,33.72 78.16,85.91 -24.23,44.68 -63.31,76.43 -117.44,106.06z"/>
   <path class="fil0" d="M2645.93 2079.26c22.37,11.11 39.08,16.71 53.85,16.71 39.35,0 57.79,-35.42 57.79,-76.42 0,-41.02 -18.44,-85.68 -55.8,-104.39 -29.87,-15.04 -52.19,-37.41 -74.55,-80.33 -74.5,-149 -83.94,-288.8 -132.46,-439.77 -9.26,-31.81 -12.85,-33.5 -18.46,-33.5 -13.1,0 -26.22,46.6 -29.89,63.31 -5.58,27.97 -7.52,54.12 -7.52,82.07 0,14.8 1.94,31.58 3.66,46.6 7.52,48.27 20.64,113.58 35.42,191.98 -42.67,119.17 -145.39,258.97 -298.03,258.97 -63.56,0 -117.44,-78.17 -130.54,-150.99 -11.18,-63.37 -14.85,-126.68 -22.37,-191.97 -9.44,-63.39 -11.13,-130.37 -18.65,-191.99 0,-5.6 -3.67,-9.19 -9.25,-9.19 -9.44,0 -13.12,20.38 -15.04,31.56 -7.52,37.34 -20.38,89.52 -20.38,128.6 0,80.35 12.86,309.43 42.67,406.52 28.16,94.88 82.09,176.9 184.73,176.9 178.87,0 272.07,-175.2 329.85,-326.19 26.15,78.41 59.63,160.23 124.94,201.5zm-316.93 -1019.64c-1.99,-3.84 -3.67,-3.84 -3.67,-3.84 -11.18,0 -74.74,72.81 -97.06,109.97 -3.66,3.86 -3.66,5.53 -3.66,9.44 0,25.98 91.26,100.48 119.16,100.48 9.46,0 84.01,-91.28 98.78,-109.92 1.94,-1.74 3.86,-5.6 3.86,-7.33 0,-1.94 -1.92,-3.86 -3.86,-5.6 -29.62,-9.44 -93.19,-61.62 -113.56,-93.2z"/>
   <path class="fil0" d="M1514.47 1915.17c-7.52,-1.92 -13.12,-3.86 -18.65,-3.86 -37.39,0 -65.28,54.12 -65.28,100.72 0,27.9 9.44,54.1 29.81,67.22 31.81,20.37 68.97,23.98 115.57,23.98 72.75,0 136.12,-35.42 165.94,-78.11 27.97,-39.08 35.49,-130.59 35.49,-173.34 0,-95.12 -28.15,-227.4 -52.2,-227.4 -3.91,0 -13.1,3.66 -16.77,14.85 -11.38,22.31 -24.23,108.22 -24.23,139.8 0,7.5 1.67,15.02 3.61,16.71 9.24,22.37 26.2,57.77 26.2,78.41 0,13.1 -46.6,53.85 -138.04,53.85 -20.45,0 -44.69,-3.66 -61.45,-12.85z"/>
   <path class="fil0" d="M1661.77 2321.44c20.45,33.5 89.35,85.68 113.63,85.68 9.19,0 83.94,-93.2 96.8,-109.97 1.94,-1.94 3.93,-5.53 3.93,-7.52 0,-1.67 0,-3.61 -3.93,-5.53 -29.82,-11.19 -91.26,-61.45 -113.56,-94.94 -1.94,-1.92 -1.94,-1.92 -3.66,-1.92 -9.46,0 -63.56,61.4 -89.54,98.79 -33.48,-16.77 -84.01,-59.7 -102.64,-89.59 -1.74,-1.67 -3.67,-1.67 -5.58,-1.67 -9.26,0 -72.58,72.56 -94.94,109.97 -3.84,3.61 -3.84,5.53 -3.84,7.52 0,25.98 91.51,102.39 119.41,102.39 7.52,0 57.78,-59.7 83.94,-93.2z"/>
   <path class="fil0" d="M1473.45 1762.26c0,-20.63 -7.52,-33.48 -27.9,-33.48 -22.54,0 -37.39,66.98 -89.52,98.78 -85.68,55.8 -292.71,130.35 -589.06,130.35 -262.82,0 -482.69,-41.07 -482.69,-242.25 0,-33.48 7.5,-76.42 26.15,-113.83 1.74,-5.58 3.66,-11.18 3.66,-16.71 0,-11.19 -5.6,-22.37 -20.62,-22.37 -39.08,0 -80.1,169.69 -80.1,233 0,272.07 201.43,341.21 534.89,341.21 301.96,0 563.09,-100.7 635.67,-158.44 16.71,41.02 39.08,76.42 76.42,100.72 20.62,11.11 37.41,16.71 52.19,16.71 39.08,0 59.7,-35.42 59.7,-76.42 0,-41.02 -20.63,-85.68 -57.77,-104.39 -29.83,-15.04 -52.2,-37.41 -61.64,-68.9 5.6,-15.11 20.62,-56.11 20.62,-84.01z"/>
   <path class="fil0" d="M835.87 2280.44c-1.67,-1.94 -3.59,-1.94 -5.53,-1.94 -9.24,0 -72.56,72.83 -96.87,109.92 -1.92,3.91 -3.66,5.6 -3.66,7.52 0,27.95 93.2,102.7 121.15,102.7 9.21,0 83.69,-93.19 96.81,-110.22 3.66,-1.67 5.58,-5.58 5.58,-7.27 0,-1.92 -1.92,-3.84 -3.67,-5.59 -29.81,-11.18 -93.2,-61.64 -113.82,-95.12z"/>
  </g>
  <polygon class="fil1" points="-0,0 6889.76,0 6889.76,4015.06 -0,4015.06 "/>
  <g id="_1581860128">
   <path class="fil2" d="M942.8 595.27c57.22,-12.17 98.84,-22.76 124.87,-31.78 32.32,-11.01 74.43,-30 126.35,-56.98l24.06 -2.62c-11.99,13.66 -26.3,30.66 -42.94,51.01 -10.38,5.11 -31.26,12.63 -62.65,22.59 -33.2,10.98 -56.33,19.35 -69.39,25.12 -101.09,44.32 -221.98,67.48 -334.99,64.64 -45.22,-1.13 -85.69,-5.73 -121.38,-13.78 -1.31,-0.39 -22.24,-5.39 -62.76,-14.99 -27.74,-6.78 -51.4,-16.32 -70.97,-28.63 -25.01,31.95 -54.58,47.49 -88.73,46.64 -12.86,-0.32 -26.08,-3.33 -39.66,-9.04 -12.3,-3.89 -21.55,-5.91 -27.76,-6.06 -8.43,-0.21 -20.86,6.64 -37.3,20.55 -3.58,0.98 -6.01,0.91 -7.31,-0.19 -2.11,-3.28 -1.78,-6.31 0.97,-9.11 36.58,-46.69 64.42,-70.52 83.54,-71.47 10.28,-2.26 19.2,-3.28 26.74,-3.09 11.08,0.28 23.19,3.44 36.3,9.5 15.52,0.39 30.52,-3.53 44.99,-11.76 6.34,-3.78 16.8,-11.57 31.38,-23.38 81.41,35.33 165.79,54.09 253.15,56.28 53.57,1.33 160.9,-1.94 213.47,-13.45z"/>
   <path class="fil3" d="M901.72 253.77c14.56,21.81 32.99,32.54 54.32,32.94 14.42,-0.1 30.99,-12.84 50.3,-38.26 -0.02,-2.32 2.29,-5.16 6.3,-8.09 2.93,-0.57 5.15,-0.59 6.94,1.08 -4.41,24.19 -15.19,48.97 -32.9,74.47 -17.07,23.15 -34.22,35.34 -51.52,35.46 -2.26,0.02 -5.16,0.04 -7.41,-0.62 -2.32,0.02 -5.26,-0.52 -8.07,-1.62 -3.46,-1.65 -6.36,-2.31 -7.49,-2.85 -1.09,19.57 -1.5,39.15 -2.5,58.71 -0.43,21.81 -2.07,40.83 -4.76,56.4 -5.72,10.99 -13.67,27.7 -24.46,50.26 -2.23,2.24 -4,3.39 -5.71,2.85 -1.12,-3.47 -1.15,-7.49 -0.63,-12.65 1.07,-8.61 1.04,-13.19 1.03,-14.31 -0.04,-6.37 -0.11,-16.75 -1.35,-32.3 -0.65,-13.75 -0.72,-24.7 -0.78,-32.76 -2,-29.84 -6.86,-69.5 -14.13,-120.11 2.85,-6.95 6.81,-16.15 11.31,-27.69 3.98,-7.53 10.27,-18.98 18.22,-34.01 1.12,-0.58 2.89,-1.24 4.01,-1.25 1.68,-0.01 3.46,1.75 4.62,5.76 2.39,5.14 3.53,8.04 4.66,8.6l0 0z"/>
   <path class="fil3" d="M670.04 391.49l-0.03 -4.03c13.15,-18.43 31.89,-43.93 57.05,-75.74l2.25 -0.02c20.26,21.19 45.77,40.59 76.31,57.04 0.56,1.11 1.22,2.24 1.23,4.01l-54.71 74.53c-1.2,1.23 -5.24,0.59 -11.53,-1.05 -18.49,-8.48 -42.23,-27.32 -70.57,-54.75l0 0z"/>
   <path class="fil3" d="M533.61 256.2c14.57,21.81 32.98,32.54 54.24,32.94 14.43,-0.1 31,-12.84 50.37,-38.26 -0.02,-2.32 2.31,-5.17 6.32,-8.09 2.8,-0.57 5.15,-0.59 6.83,1.08 -4.41,24.19 -15.09,48.97 -32.8,74.47 -17.07,23.15 -34.31,35.34 -51.55,35.46 -2.23,0.02 -5.13,0.04 -7.48,-0.62 -2.25,0.02 -5.15,-0.52 -8.06,-1.63 -3.48,-1.65 -6.29,-2.31 -7.52,-2.85 -0.96,19.56 -1.41,39.15 -2.4,58.71 -0.4,21.81 -2.04,40.83 -4.83,56.4 -5.65,10.99 -13.59,27.7 -24.39,50.26 -2.21,2.24 -4,3.38 -5.68,2.85 -1.24,-3.47 -1.27,-7.49 -0.63,-12.65 1.04,-8.61 1.01,-13.19 1,-14.31 -0.04,-6.37 -0.11,-16.75 -1.32,-32.29 -0.77,-13.75 -0.84,-24.7 -0.9,-32.76 -1.88,-29.84 -6.74,-69.5 -14.04,-120.11 2.88,-6.95 6.84,-16.15 11.34,-27.69 3.98,-7.53 10.27,-18.98 18.2,-34.01 1.13,-0.59 2.82,-1.24 4.02,-1.25 1.7,-0.01 3.48,1.75 4.64,5.76 2.29,5.14 3.51,8.03 4.64,8.59l0 0z"/>
   <path class="fil3" d="M327.81 437.05c1.65,-5.14 4.51,-10.31 8.5,-15.59 9.1,-11.56 18.29,-23.7 27.37,-35.3 11.44,-12.71 22.88,-21.41 34.39,-25.52 12.05,-3.53 21.25,-1.24 27.56,6.76 0.69,2.9 0.71,6.92 0.09,12.63 -2.78,4.6 -5.66,6.97 -9.13,8.11 -3.44,0.58 -7.47,0.05 -13.2,-2.8 -5.17,-2.22 -9.87,-3.41 -13.23,-2.72 -10.93,3.43 -17.79,12.18 -20.05,25.4 0.06,8.63 5.91,14.94 16.89,19.46 4.04,1.65 8.07,2.17 11.54,2.15 7.38,-0.05 15.42,-2.91 24.65,-9.32 13.69,-9.27 21.7,-14.48 24.6,-15.73 2.89,-1.15 5.14,-1.71 7.49,-1.18 1.13,1.12 0.02,3.48 -2.3,8.07 -1.65,3.48 -11.99,12.73 -30.21,28.39 -5.22,4.06 -13.23,10.49 -24.69,20.3 -11.33,11.03 -27.97,27.25 -49.63,49.21 -7.99,9.33 -14.32,15.63 -20,20.27 -4.6,0.03 -6.93,-1.08 -6.95,-3.98 1.06,-6.84 4.47,-14.36 10.8,-22.46 5.66,-6.39 10.86,-13.38 15.97,-19.67l7.41 -9.32c-6.39,-2.76 -10.44,-5.09 -12.12,-6.2 -4.04,-2.3 -7.51,-5.74 -9.89,-9.08 -3.5,-3.46 -5.78,-10.94 -5.86,-21.89l0 0z"/>
   <path class="fil4" d="M6385.65 282.67l1.22 -0.02c20.26,-34.14 43.54,-58.68 69.2,-73.89 3.45,-0.04 6.36,0.47 8.08,1.57 -4.98,13.92 -11.71,29.55 -19.57,45.76 -38.79,28 -68.75,66.38 -90.06,114.39 -2.78,2.29 -5.13,2.32 -7.46,1.22 -1.72,-1.66 -2.31,-4.55 -1.8,-8.03 1.06,-5.17 1.6,-8.07 1.6,-8.07 3.3,-12.12 4.39,-22.42 4.3,-29.92 -0.16,-12.63 -4.31,-22.41 -13.67,-29.79 -9.24,-6.81 -19.04,-10.04 -29.98,-9.91 -4.58,0.06 -9.24,0.67 -13.83,2.4 -11.46,3.61 -18.2,10.63 -19.29,20.95 -0.48,7.49 -0.35,17.89 1.05,32.18 1.33,16.76 2.03,28.15 2.11,34.53l0.85 68.42c-0.53,1.78 -5.46,19.65 -14.31,53.74 -1.1,0.01 -1.67,1.12 -2.2,2.26 -1.2,1.81 -2.33,1.83 -3.46,1.17 -1.19,-5.13 -3.18,-22.32 -5.21,-50.48 -0.65,-5.8 -2.6,-20.1 -5.79,-43.1 -1.9,-17.76 -3.21,-32.72 -3.35,-43.67 -0.32,-25.83 4.56,-48.37 13.47,-67.49 11.78,-23.73 18.56,-36.44 19.66,-38.16 8.55,-13.96 19.29,-23.27 31.87,-27.46 6.89,-3.54 14.91,-5.33 22.96,-5.43 12.63,-0.16 23.63,3.73 31.78,11.04 14,12 21.05,27.35 21.83,45.79l0 0z"/>
   <path class="fil4" d="M6170.08 285.54l1.13 -0.02c20.26,-34.14 43.56,-58.69 69.3,-73.89 3.45,-0.04 6.26,0.47 8.05,1.58 -5.05,13.91 -11.69,29.55 -19.54,45.76 -38.79,28 -68.84,66.38 -90.06,114.39 -2.87,2.29 -5.13,2.32 -7.46,1.22 -1.72,-1.66 -2.41,-4.55 -1.8,-8.03 1.06,-5.17 1.6,-8.07 1.6,-8.07 3.3,-12.12 4.3,-22.42 4.21,-29.92 -0.16,-12.63 -4.31,-22.41 -13.58,-29.79 -9.34,-6.81 -19.13,-10.04 -30.09,-9.91 -4.58,0.06 -9.14,0.67 -13.73,2.4 -11.46,3.61 -18.3,10.63 -19.29,20.95 -0.48,7.48 -0.35,17.89 0.95,32.18 1.33,16.76 2.12,28.15 2.2,34.53l0.85 68.42c-0.63,1.78 -5.56,19.65 -14.31,53.74 -1.2,0.02 -1.76,1.12 -2.3,2.26 -1.11,1.81 -2.23,1.83 -3.46,1.17 -1.19,-5.13 -3.08,-22.32 -5.21,-50.48 -0.64,-5.8 -2.5,-20.1 -5.69,-43.1 -2,-17.76 -3.31,-32.72 -3.44,-43.67 -0.32,-25.83 4.55,-48.37 13.56,-67.5 11.78,-23.73 18.56,-36.44 19.66,-38.16 8.45,-13.96 19.29,-23.27 31.87,-27.46 6.88,-3.54 14.91,-5.33 22.96,-5.44 12.63,-0.16 23.63,3.74 31.78,11.04 13.91,12 21.05,27.35 21.83,45.79l0 0z"/>
   <path class="fil4" d="M5960.82 501.37l-6.77 -129.29c-1.86,-14.4 -2.67,-28.15 -3.97,-41.89 -1.33,-16.74 -1.51,-31.07 -0.54,-43.16 10.67,-23.72 19.59,-43.96 27.45,-59.04 3.42,-2.39 5.76,-2.97 7.46,-1.77 1.13,1.09 1.82,3.98 2.44,8 0.05,4.02 0.64,6.85 0.66,8.04 1.44,25.27 1.7,46.52 0.81,64.96 0.09,6.92 -0.38,14.43 -0.27,23.04 0.89,26.4 0.27,67.31 -1.96,121.37 -3.84,15.03 -9.98,31.76 -17.25,50.31 -2.19,4.61 -4.51,5.76 -7.46,1.77l-0.6 -2.34z"/>
   <path class="fil4" d="M5807.71 352.65c7.03,7.97 8.85,18.25 6.76,31.56 18.13,-16.31 34.14,-24.57 48.57,-24.74 6.92,-0.09 13.22,1.51 19.61,4.33 9.26,6.17 14.51,14.15 14.63,23.98 1.46,18.99 -9.78,42.62 -32.99,71.74 -9.72,9.3 -17.04,15.76 -22.8,19.19 -9.09,7.06 -17.63,12.3 -25.65,15.3 -32.69,13.06 -65.94,19.83 -99.28,20.24 -22.46,0.28 -43.17,-2.36 -62.25,-8.38 -2.27,-1.2 -4.64,-2.84 -8.13,-6.27 -0.04,-2.9 2.26,-4.61 6.28,-5.88 4,-1.18 6.26,-1.78 6.25,-2.33 12.55,-13.91 25.49,-35.43 38.34,-64.33 14.59,-31.26 26.94,-53.23 35.96,-65.98 11.89,-15.7 26.22,-23.36 43.42,-23.57 14.43,-0.18 24.8,4.85 31.28,15.14l0 0zm-24.32 31.3c-1.14,-0.54 -2.92,-1.64 -5.85,-3.96 -2.82,-1.64 -4.63,-2.75 -5.77,-3.3 -9.17,-0.54 -16.64,1.33 -21.73,6 -11.38,10.52 -22.7,26.77 -33.37,49.29 -12.31,26.08 -21.91,43.43 -28.64,52.12 14.84,-3.66 26.29,-7.83 35.5,-13.07 34.2,-19.43 56.4,-41.52 65.26,-66.92 -0.11,-8.69 -1.89,-15.53 -5.4,-20.16l0 0zm80.25 23.8c-1.19,-4.56 -4.7,-7.99 -10.54,-10.25 -2.81,-0.54 -5.71,-1.05 -9.19,-1.01 -10.37,0.13 -18.93,4.26 -26.33,11.83 -1.11,1.71 -11.25,14.48 -30.51,38.3 -11.89,15.7 -23.25,27.35 -34.69,33.86 39.65,-3.39 67.73,-11.24 83.68,-24.07 19.4,-14.67 28.95,-28.55 28.8,-40.63 -0.03,-2.32 -0.06,-5.24 -1.22,-8.04l0 0z"/>
   <path class="fil5" d="M6369.52 574.07c56.02,-12.48 96.77,-23.3 122.24,-32.46 31.63,-11.18 72.81,-30.4 123.55,-57.67l23.57 -2.75c-11.68,13.73 -25.61,30.8 -41.81,51.24 -10.15,5.17 -30.58,12.81 -61.3,22.94 -32.49,11.16 -55.12,19.66 -67.89,25.5 -98.86,44.87 -217.25,68.69 -328.06,66.47 -44.34,-0.89 -84.04,-5.26 -119.07,-13.11 -1.3,-0.39 -21.83,-5.27 -61.61,-14.65 -27.24,-6.63 -50.48,-16.04 -69.73,-28.24 -24.34,32.08 -53.25,47.79 -86.73,47.12 -12.61,-0.25 -25.59,-3.19 -38.93,-8.83 -12.08,-3.82 -21.16,-5.79 -27.25,-5.91 -8.26,-0.17 -20.41,6.76 -36.44,20.75 -3.5,1 -5.89,0.95 -7.17,-0.15 -2.09,-3.26 -1.78,-6.3 0.9,-9.11 35.6,-46.89 62.76,-70.87 81.5,-71.93 10.07,-2.31 18.81,-3.39 26.2,-3.24 10.86,0.22 22.75,3.31 35.64,9.3 15.22,0.3 29.9,-3.7 44.04,-12 6.19,-3.82 16.41,-11.66 30.63,-23.55 80.01,34.89 162.84,53.19 248.5,54.89 52.53,1.04 157.73,-2.82 209.21,-14.62z"/>
   <g>
    <path class="fil6" d="M3902.84 605.5c23.33,-27.33 38.03,-43.99 44.71,-50.02 19.96,16.65 38.62,31.36 56.64,43.35l-44 48.67c-27.35,-6.03 -46.02,-20.02 -57.35,-42l0 0zm-55.99 -159.33c-3.96,7.97 -5.32,11.99 -5.97,11.99 -5.37,11.98 -12.04,23.33 -18.67,32.67 -4.02,6.02 -10.03,9.33 -17.36,10.68 -41.33,5.32 -73.35,9.98 -95.32,15.36 -2.01,0 -4.67,-1.36 -7.32,-4.02 -0.71,-2.01 2,-6.03 7.32,-11.35 14,-8.03 34.02,-20.02 60.65,-36.03 23.98,-14.64 42.69,-29.29 55.98,-44 13.35,-17.31 24.04,-37.97 32.02,-61.31 1.36,-2.65 7.32,-24.68 19.32,-66.01 1.35,-2.67 3.36,-4.67 6.02,-6.68 5.32,-2.65 8.03,-1.31 8.03,3.36l1.96 10.69c0,-1.36 -1.31,9.33 -4.67,31.31 -2.65,14.64 -3.96,25.33 -3.96,32 0,12 2,23.33 6.67,33.32 7.98,13.35 21.97,22.68 42,26.69 12.64,-29.36 20.67,-46.67 23.33,-53.33 9.97,-22.03 20.67,-38.68 31.29,-50.68 8.04,-8.68 18.02,-13.35 30.02,-13.35 8.03,0 18.65,2.67 31.35,6.68 3.32,0.65 7.99,2.65 14,4.67 7.33,2 12.64,3.3 15.31,4.01 10.03,3.31 25.33,6.67 46,9.99 3.36,1.35 4.01,4.01 2.01,8.03 -13.35,11.28 -32.67,33.96 -59.3,69.28 -24.68,31.36 -45.35,54.04 -62.71,67.39 -26.64,19.96 -53.99,29.29 -83.33,27.98 -22.63,-1.35 -37.98,-7.37 -45.96,-18.01 -9.33,-9.32 -16,-30.65 -19.36,-64.02 -3.32,7.32 -5.97,14.71 -9.33,22.68l0 0zm210.67 -88.65c-5.97,-1.36 -14,-4.01 -23.33,-7.32 -10.64,-3.37 -18.02,-4.67 -22.68,-4.67 -8.63,0 -16,3.31 -21.97,11.28 -14.65,18.01 -25.98,40.69 -33.36,68.04 22.68,0.65 49.36,-8.03 78.02,-24.69 9.98,-7.32 18.01,-12.64 23.33,-16.65 7.32,-6.67 13.35,-13.35 16.65,-20.67l-16.65 -5.32z"/>
    <path class="fil6" d="M3614.87 585.48l-33.32 38.68c-26.7,-6.01 -46,-20.67 -58,-43.35 25.29,-33.31 39.98,-51.32 44,-53.33 13.29,12.7 30.65,26.7 52.62,42l40.7 -42c19.32,16.02 37.97,30.65 56.64,44.65 -2.65,2.71 -18.67,20.03 -48.67,52.03 -14.64,-6.67 -32.65,-20.01 -53.97,-38.68l0 0zm-204 -66.68c-2,0 -3.36,-1.3 -5.32,-3.31 -1.35,-3.31 1.96,-7.97 9.33,-13.35 29.29,-19.96 49.97,-33.96 60.65,-42.64 23.33,-17.36 42,-35.32 55.35,-54.04 13.99,-17.31 25.33,-42.64 33.96,-73.94 13.35,-48.72 21.37,-75.36 23.33,-80.03 2,-1.35 4.02,-2 6.67,-2 2.01,0.65 3.36,1.35 4.01,4.01 1.36,8.68 0.65,16.65 -1.3,23.97 -0.7,6.03 -2.71,14 -5.36,25.35 -0.65,19.3 -0.65,34.67 0.65,45.35 2.71,18.67 8.68,32.01 19.36,39.98 8.68,6.68 19.97,9.99 34.02,9.99 15.31,-3.31 28.65,-16.02 39.33,-39.33 3.32,-3.96 5.97,-4.67 7.33,-2.01 1.29,2.01 2,4.67 2,8.68 0,6.68 -2.71,16.65 -7.37,29.36 -22.63,53.97 -48.67,81.32 -77.31,81.32 -16.67,0 -29.36,-7.97 -37.98,-23.33 -5.36,-10.68 -9.33,-23.97 -12.69,-40.68 -3.31,12.69 -11.33,33.36 -22.68,60.71 -3.96,5.32 -8.63,8.62 -14.64,11.98 -11.35,3.96 -18.01,6.67 -19.32,7.32l-92.01 26.64z"/>
    <path class="fil6" d="M3366.19 322.84c2.65,9.33 3.36,18.02 3.36,27.35 0,18.65 -4.67,38.63 -14,61.31 -0.71,2 -10.03,21.32 -28.04,58 -1.96,5.31 -7.33,11.33 -15.31,18.65 -20.67,6.68 -52.68,15.36 -96.03,25.33 -2.65,2.02 -5.32,0.65 -6.67,-4.65 1.35,-1.31 8.68,-6.68 23.37,-17.32 9.33,-6.67 25.99,-16 48.67,-28.69 21.32,-10.64 36.62,-19.96 47.3,-29.29 7.33,-8.03 8.68,-20.03 4.67,-36.03 -4.67,-18.67 -20.02,-34.67 -46,-47.31 -1.31,-2.01 -1.31,-4.67 0,-8.03 1.35,-2.67 2.65,-5.32 4.01,-7.98 5.32,-16.71 11.33,-36.67 19.31,-60.71 12,0.71 23.33,6.68 34.03,16.71 9.33,9.33 16.65,20.68 21.32,32.67l0 0z"/>
    <path class="fil6" d="M3069.52 510.83c-7.97,2.01 -20.67,4.01 -39.33,7.32 -4.02,0 -5.96,-1.29 -7.32,-4.02 0,-3.96 2.67,-7.32 9.33,-11.28 16.65,-10.7 34.02,-21.38 50.67,-32.02 20.03,-12.69 35.97,-24.68 48.67,-36.03 13.35,-14.64 25.35,-35.96 36.68,-64.67 8.68,-23.97 17.31,-48.02 25.33,-71.99 1.3,-3.32 4.67,-5.32 8.62,-5.32 4.02,0 6.03,2 6.03,5.32 1.36,8.68 -2.67,27.99 -10.69,57.99 -13.29,52.68 -30,95.33 -49.31,127.33 -6.68,12 -18.67,19.38 -35.32,22.03 -14.65,2.02 -28.71,3.96 -43.36,5.32l0 0z"/>
    <path class="fil6" d="M3128.19 148.15c-0.65,16 -5.32,30.71 -14.64,44 -9.33,14 -21.33,23.32 -36.03,28.69 -2.67,0.65 -5.97,0.65 -11.35,0 -5.3,-0.71 -9.32,-1.35 -10.62,-1.35 -16.02,24.68 -34.02,37.32 -54.7,37.32 1.36,74 -12.64,142.68 -41.98,206.71 -19.32,41.28 -43.35,74.65 -72.65,99.98 -36.02,31.31 -73.35,46.02 -114.04,44 -17.96,-0.7 -34.67,-7.32 -50.61,-19.37 -16,-11.98 -27.35,-26.63 -34.67,-43.98 -9.33,-23.33 -14.06,-49.32 -14.06,-77.32 0,-38.68 12.04,-90.65 34.72,-157.33 1.31,-2.65 3.31,-6.03 6.63,-9.99 4.67,0 6.67,1.31 6.67,2.67 -0.65,7.32 -2.65,16 -5.97,26.64 -3.36,13.99 -6.01,22.67 -6.67,26.04 -6.03,30.65 -9.33,54.62 -9.33,71.28 0,40.04 14,68.04 40.64,84.7 16,9.98 34.67,15.36 55.98,15.36 33.36,0 66.03,-10.69 96.68,-32.72 59.35,-41.99 89.36,-99.99 89.36,-174.64 0,-7.32 0,-14.65 -0.65,-21.97 0,-6.68 -1.36,-16.71 -4.02,-28.71 -2.01,-11.99 -2.67,-20.67 -2.67,-26.64 0,-5.36 0,-10.03 1.31,-14.69 1.36,-4.67 2.01,-9.98 3.36,-15.31 1.31,-6.01 3.32,-10.03 6.68,-13.35 2.65,0 4.67,2.02 5.32,5.97 0,4.02 0.64,6.68 2,8.68 4.67,1.36 9.33,2.02 13.29,2.02 13.35,0 24.04,-4.67 32.72,-14 0.64,-0.65 5.96,-9.99 16,-27.35 0.65,-2.65 2.65,-3.3 5.32,-2.01 2,8.04 5.32,12.71 11.33,15.36 4.67,2.65 12.64,0.65 23.33,-5.32 5.96,-6.67 14.64,-18.67 26.64,-37.32 1.35,-0.71 3.36,-0.71 4.67,0 1.35,1.29 2,2.65 2,3.96l0 0z"/>
   </g>
   <path class="fil3" d="M6519.09 233.2c14.56,21.81 32.99,32.54 54.32,32.94 14.42,-0.1 30.99,-12.84 50.3,-38.26 -0.02,-2.32 2.29,-5.16 6.3,-8.09 2.92,-0.57 5.15,-0.59 6.94,1.08 -4.41,24.19 -15.19,48.97 -32.9,74.47 -17.08,23.15 -34.22,35.34 -51.52,35.46 -2.26,0.02 -5.16,0.04 -7.41,-0.62 -2.32,0.02 -5.26,-0.52 -8.07,-1.62 -3.46,-1.65 -6.36,-2.31 -7.49,-2.85 -1.09,19.57 -1.5,39.15 -2.5,58.71 -0.43,21.81 -2.07,40.83 -4.76,56.4 -5.72,10.99 -13.67,27.7 -24.46,50.26 -2.23,2.24 -4,3.39 -5.7,2.85 -1.13,-3.47 -1.15,-7.49 -0.64,-12.65 1.07,-8.61 1.04,-13.19 1.03,-14.31 -0.04,-6.37 -0.11,-16.75 -1.35,-32.3 -0.65,-13.75 -0.72,-24.7 -0.78,-32.76 -2,-29.84 -6.86,-69.5 -14.13,-120.11 2.85,-6.95 6.81,-16.15 11.31,-27.69 3.98,-7.53 10.27,-18.98 18.22,-34.01 1.12,-0.58 2.89,-1.24 4.02,-1.25 1.68,-0.01 3.46,1.75 4.62,5.76 2.39,5.14 3.53,8.04 4.66,8.6l0 0z"/>
   <path class="fil4" d="M1092.88 515.16l-6.77 -129.29c-1.86,-14.4 -2.67,-28.15 -3.97,-41.89 -1.33,-16.74 -1.51,-31.07 -0.54,-43.16 10.67,-23.72 19.59,-43.96 27.45,-59.04 3.42,-2.39 5.76,-2.97 7.46,-1.77 1.14,1.09 1.82,3.98 2.44,8 0.05,4.02 0.64,6.85 0.66,8.04 1.44,25.27 1.7,46.52 0.81,64.96 0.08,6.92 -0.38,14.43 -0.27,23.04 0.89,26.4 0.27,67.31 -1.96,121.37 -3.84,15.03 -9.98,31.76 -17.26,50.31 -2.19,4.61 -4.5,5.76 -7.46,1.77l-0.6 -2.34z"/>
  </g>
  <g id="_1581844096">
   <path class="fil7" d="M6574.93 3688.19c-13.72,5.55 -22.89,5.55 -27.48,1.01 -4.59,-4.58 0,-10.96 13.76,-19.33 55.94,-34.87 98.15,-84.48 127.64,-149.59 23.7,-53.19 35.69,-109.17 35.69,-167.09 0,-154.95 -56.8,-267.13 -169.68,-336.82 -5.62,-3.57 -8.43,-8.17 -8.43,-12.75 0,-8.37 5.61,-10.15 15.77,-6.57 67.92,23.09 124.66,68.93 170.71,135.83 45.77,67.15 68.67,140.41 68.67,218.53 0,72.45 -21.1,140.37 -63.32,203.75 -42.22,63.32 -96.37,108.34 -163.32,133.03l0 0z"/>
   <path class="fil7" d="M165.25 3353.23c0,57.93 11.98,113.91 35.84,167.09 29.31,65.11 71.53,114.71 127.46,149.59 13.77,8.37 18.35,14.74 13.77,19.32 -4.59,4.54 -13.77,4.54 -27.49,-1.01 -66.13,-25.7 -120.28,-70.72 -162.54,-133.85 -42.98,-63.32 -64.1,-131.24 -64.1,-202.93 0,-78.12 22.89,-151.38 68.68,-218.53 46.05,-66.9 102.79,-112.74 170.71,-135.83 10.15,-3.57 15.71,-1.79 15.71,5.61 0,5.55 -2.76,10.15 -8.37,13.72 -112.88,71.69 -169.68,183.66 -169.68,336.82l0 0z"/>
   <path class="fil7" d="M1053.04 3778.59c-32.4,-7.11 -57.05,-23.76 -72.15,-49.2 32.5,-37.26 49.95,-57.82 53.95,-60.26 21.41,18.34 43.61,35.75 68.25,52.4l-50.06 57.06zm557.52 -394.91c-8.8,48.37 -33.3,86.47 -75.4,113.42 -42.06,26.99 -84.77,45.95 -127.63,57.06 -94.31,24.64 -196.67,39.74 -306.88,44.5 -110.22,4.65 -210.88,7.1 -303.65,6.34 -57.95,-0.8 -114.2,-3.24 -168.95,-7.24 -54.71,-4.76 -104.67,-12.65 -149.04,-24.51 -45.2,-11.86 -66.61,-40.41 -62.61,-86.46 3.11,-21.44 8.65,-31.76 17.41,-29.31 7.89,1.56 23,4.8 44.41,9.55 80.91,19.76 163.36,31.61 246.62,37.17 83.26,5.54 166.48,7.99 248.94,8.78 84.02,0.76 172.82,-2.34 267.28,-9.54 94.32,-7.11 180.68,-23.76 259.28,-48.41 21.41,-6.34 40.37,-14.96 57.82,-25.31 17.41,-11.09 31.75,-26.96 42.85,-47.6 3.2,-6.35 5.52,-8.66 7.87,-7.11 2.44,0.76 2.44,4 1.69,8.65l0 0z"/>
   <path class="fil7" d="M1907.1 3142.74c-18.33,-8.78 -39.74,-23.88 -64.26,-45.29l-39.6 46.05c-31.76,-7.1 -54.75,-24.64 -69.05,-50.71 30.95,-39.74 48.4,-60.25 52.39,-62.74 18.17,15.89 39.61,31.75 62.57,48.4l48.4 -49.91c29.31,24.51 52.27,42.06 67.37,53.15 -26.2,27.75 -45.93,48.4 -57.82,61.05l0 0z"/>
   <path class="fil7" d="M1706.43 3128.41l4 4c-7.1,64.16 -10.31,141.96 -8.79,233.09 2.47,22.2 4,44.4 5.55,66.57 4,26.2 11.89,46.09 24.65,60.29 5.56,7.2 14.21,10.31 26.2,10.31 7.89,0 17.44,-1.56 29.3,-5.55 26.19,-7.86 49.95,-30.06 71.36,-65.81 6.34,-10.31 15.09,-15.85 26.19,-15.85 5.56,0 14.96,2.44 29.3,6.3 12.66,4 22.2,4.76 29.31,4 9.54,-4.76 15.85,-14.21 18.3,-27.75 0.8,-11.87 1.56,-23.76 2.34,-35.62 0.77,-4 0.77,-34.99 0,-94.45 0,-37.96 4.76,-68.92 15.11,-92.67 17.41,-40.54 42.72,-68.26 76.12,-83.36 16.65,-9.45 53.81,-27.75 112.56,-53.82 46.71,-20.65 83.22,-40.53 108.67,-60.29 3.86,0 6.3,0.8 6.3,3.11 0,4.79 -3.99,12.78 -12.65,23.88 -15.1,19.76 -34.95,37.17 -60.26,52.27 -9.55,5.55 -32.52,17.41 -68.26,34.85 -27.75,12 -67.37,31.75 -120.56,58.71 -11.09,7.1 -18.19,17.41 -21.41,32.51 -1.55,12.65 -3.1,25.44 -4.66,38.85 -0.89,48.4 -1.69,81.7 -2.44,98.35 -2.31,37.3 -6.31,70.56 -13.41,98.32 -3.24,13.41 -10.35,24.51 -22.2,34.85 -12,10.3 -25.43,15.85 -39.74,18.2 -7.1,0.9 -15.76,0 -26.06,-3.1 -11.89,-3.24 -20.65,-4.8 -26.2,-4.8 0,0 -4,4.8 -12.65,15.09 -13.54,34.1 -25.44,59.51 -36.54,76.16 -18.17,26.86 -41.16,41.96 -67.36,45.96 -27.72,0 -47.6,-13.54 -57.95,-39.61 -11.85,-30.23 -18.96,-71.39 -19.72,-123 0.76,-42.71 0.76,-85.57 0.76,-127.61 0,-24.56 0.8,-60.3 1.56,-107.02 7.11,-16.65 15.89,-41.3 26.2,-73.67 0.79,-2.44 3.1,-2.44 7.1,-1.69l0 0z"/>
   <path class="fil7" d="M3012.32 2745.5l28.64 -17.54c3.91,-2.31 6.35,-1.55 6.35,2.44 0,4 -5.56,12.65 -16.65,26.2 -24.65,24.51 -58.71,45.95 -103.91,62.61 -38.06,12.61 -76.12,25.41 -114.22,38.81 -6.31,3.24 -14.3,9.58 -24.51,19.89 -7.24,57.05 -8,106.98 -1.69,149.06 7.23,30.06 19.88,46.71 37.3,49.16 3.23,-12.78 10.34,-30.95 20.64,-54.71 2.35,-1.69 9.56,-0.78 22.2,1.56 15.1,7.07 23.76,15.85 25.31,26.2 0.9,5.54 1.69,10.3 1.69,15.85 0,16.65 -6.34,39.61 -19.88,68.16 -13.42,27.72 -32.52,42.06 -58.71,42.06 -23,0 -40.41,-11.11 -53.06,-34.2 -9.54,-24.51 -15.1,-49.16 -15.85,-75.22l-1.56 0c-2.44,6.3 -8.79,14.17 -19.1,24.51 -10.34,9.56 -17.44,17.41 -19.76,24.65 0,3.87 5.56,15.1 15.76,32.51l29.41 35.61c0.79,5.56 -1.56,11.89 -8.76,20.65 -14.21,18.2 -26.99,31.75 -38.85,40.41 -4,1.55 -7.86,2.44 -11.86,2.44 -7.11,0 -15.13,-3.21 -25.44,-10.31 -11.85,-8.02 -20.51,-12.78 -25.3,-14.34 -11.1,-4.76 -22.2,-1.56 -32.51,8.78 -4,3.87 -8,10.31 -11.87,18.96 -4,11.11 -7.23,18.21 -8.78,20.65 -24.52,40.41 -48.4,61.05 -71.36,61.05 -19.76,-2.34 -35.61,-10.34 -46.71,-22.99 -1.69,18.2 -5.55,45.95 -11.11,81.7 -31.75,126.87 -82.46,216.43 -152.3,269.59 -34.82,26.06 -72.12,39.61 -110.98,39.61 -23.75,0 -44.4,-5.56 -62.7,-17.41 -41.96,-27.76 -63.37,-75.36 -63.37,-144.41 0,-58.62 15.11,-124.43 45.17,-197.34 1.56,-4 4,-7.23 7.1,-9.54 5.55,0 8,0.78 8.76,3.1 -5.55,21.41 -13.41,54.71 -22.96,100.01 -2.44,18.96 -3.99,35.61 -3.99,49.95 0,45.16 14.33,77.7 42.05,97.43 19,13.55 41.96,19.89 68.92,19.89 39.74,0 77.71,-12.65 114.22,-37.3 30.99,-20.65 55.51,-46.71 74.47,-77.7 18.33,-31.75 28.64,-65.02 30.99,-99.11l3.99 -68.92 -7.1 -252.94c-0.89,-30.96 3.11,-55.51 11.85,-75.36 5.56,-13.54 15.89,-33.3 29.31,-58.74 0.79,-0.76 2.44,-1.53 4.78,-1.53 2.31,1.53 3.2,4 3.2,6.31 0,4 0,6.31 0,7.11 -6.44,32.51 -9.54,69.81 -9.54,112.65 0,11.11 0,32.52 0.79,63.37 0.77,26.95 1.56,48.4 0.77,65.05 7.1,29.41 20.64,47.6 42.09,53.16 5.52,1.56 11.07,2.31 16.61,2.31 15.89,0 31.76,-6.31 47.51,-18.96 7.24,-5.55 20.65,-17.41 38.85,-37.3 10.31,-10.3 21.41,-18.96 34.95,-24.51 7.11,-19.86 19.76,-41.3 38.09,-65.06 16.65,-19.85 32.51,-39.61 49.16,-59.47 3.87,-7.89 7.11,-18.2 8.66,-30.99 0.76,-11.1 1.65,-22.2 2.44,-33.3 1.55,-14.17 3.1,-28.51 4.76,-42.71 2.34,-17.54 5.54,-31.75 11.09,-42.06 6.34,-25.44 23.75,-45.95 52.27,-62.61 11.1,-6.44 37.3,-17.54 77.7,-32.5 15.87,-4 35.75,-11.11 59.51,-21.41 35.61,-14.34 54.71,-22.2 57.02,-23l0 0z"/>
   <path class="fil7" d="M3270.04 3351.29c-18.2,-8.76 -39.61,-23.89 -64.26,-45.3l-40.4 46.08c-31.74,-8.02 -54.71,-24.68 -68.12,-50.74 30.82,-39.75 47.47,-60.27 51.47,-62.71 18.2,15.85 39.61,31.74 63.5,48.4l48.27 -49.95c29.44,24.52 52.4,41.95 67.5,53.06 -26.2,27.85 -46.1,48.36 -57.95,61.15l0 0z"/>
   <path class="fil7" d="M3173.38 3081.69l114.87 -49.95c4,-2.44 20.65,-12 49.16,-26.96 19.89,-10.34 35.75,-20.65 47.64,-30.99 4,0 6.31,1.56 6.31,4.8 0,5.54 -3.11,11.1 -10.34,18.2 -27.72,34.06 -54.71,57.15 -80.78,68.25 -20.65,11.1 -52.4,26.06 -95.24,44.4 -42.72,18.2 -74.47,33.3 -94.32,43.61 -25.44,13.41 -38.1,29.3 -38.1,46.71 -6.3,69.05 -6.3,147.52 0,236.32 5.56,21.41 15.13,36.52 28.55,45.17 8,5.56 17.55,8 28.65,8 14.21,0 26.96,-4 38.85,-11.11 3.86,-2.44 9.41,-7.23 14.97,-14.34 5.54,-7.07 9.54,-11.86 13.54,-14.3 3.11,-0.8 5.56,0.89 7.11,4.76 -5.56,32.54 -16.65,60.29 -33.3,83.26 -20.65,29.4 -40.41,44.4 -60.26,45.29 -26.2,1.56 -46.71,-8.78 -60.26,-30.99 -7.1,-16.61 -12.65,-40.37 -17.44,-71.36 -18.2,42.1 -51.48,72.16 -99.88,90.37 -28.51,10.3 -74.6,19.09 -137.97,26.19 -13.54,1.66 -27.75,2.44 -41.3,2.44 -39.6,0 -75.22,-5.55 -107.76,-17.54 -19.85,-7.1 -31.75,-20.52 -35.74,-38.85 -2.31,-13.41 -3.87,-28.51 -3.87,-43.51 0,-26.95 3.87,-55.6 11.86,-85.66 3.91,-4 6.35,-6.35 6.35,-6.35 5.54,0 7.85,2.35 7.85,6.35 0,0.76 0,11.86 0.8,34.06 0,13.54 3.2,23.75 10.31,30.95 19.88,11.11 49.15,18.21 89.7,22.2 34.06,3.11 64.92,4.8 91.87,4.8 64.29,0 117.46,-9.55 157.86,-27.76 29.28,-13.54 45.93,-30.99 49.93,-51.64 3.23,-21.41 4.78,-53.91 4.78,-99.11 0,-45.16 1.56,-78.46 4.76,-99.11 8.65,-57.03 39.64,-99.12 92.81,-126.83l38.06 -19.76z"/>
   <path class="fil7" d="M3484.93 3441.64c-8.67,10.31 -20.65,21.41 -37.3,34.82 -21.41,16.65 -34.06,27.76 -39.61,32.54 -30.06,28.52 -53.06,50.71 -68.16,66.57 -5.56,5.54 -15.1,15.09 -28.64,27.75 -6.31,-0.76 -9.42,-2.31 -10.18,-6.31 2.31,-15.1 18.17,-38.09 47.47,-68.92 -15.85,-7.99 -26.06,-15.1 -30.86,-21.44 -4.76,-6.31 -7.2,-16.65 -7.2,-30.96 2.44,-7.1 6.44,-14.21 12,-21.44 12.65,-16.65 25.3,-32.52 38.06,-48.27 15.76,-18.31 31.62,-30.2 47.51,-35.75 17.41,-4 30.19,0 38.06,10.34 0.8,3.1 0.8,8.65 0,17.41 -2.31,5.55 -6.31,9.54 -11.86,11.89 -3.99,0.76 -10.34,0 -17.44,-3.9 -7.2,-4 -14.31,-5.56 -19.85,-4 -13.42,3.1 -22.2,15.1 -26.2,34.86 0.89,8.78 8,16.65 22.2,25.44 5.54,2.31 11.1,3.07 16.65,3.07 10.3,0 21.41,-4.76 34.19,-13.41 18.2,-12.65 28.51,-19.89 32.5,-21.41 3.11,-1.56 5.56,-2.35 7.11,-1.56 0.79,0 1.56,0 2.31,0l1.69 0.76c1.54,3.11 0.78,7.11 -2.44,11.89l0 0z"/>
   <path class="fil7" d="M4322.99 3234.63c-6.31,-3.11 -13.42,-9.41 -20.52,-18.2 -5.56,-6.31 -8.78,-12.65 -8.78,-18.21 0,-2.44 0.79,-4.76 1.54,-7.2 3.24,-7.1 9.56,-16.65 19.89,-28.54 9.55,-11.86 18.2,-19.72 25.41,-22.95 3.9,-1.56 6.34,-0.77 7.89,2.44 0.76,3.1 2.31,5.55 4.76,7.86 8.65,10.34 18.2,18.2 27.75,23.76 3.11,1.69 7.11,3.23 11.87,5.54 4.03,1.69 7.89,0.8 10.34,-2.31 4.76,-7.1 12.65,-18.2 24.52,-31.75 11.1,-13.41 20.65,-18.96 27.75,-15.89 2.44,1.69 4.76,4.8 8.78,10.35 3.21,5.54 7.07,9.54 11.87,11.85 9.54,8.78 21.41,15.1 34.85,20.65 2.44,1.56 4,3.24 4,5.56 0,1.54 -0.8,3.23 -2.35,5.54 -3.2,5.56 -5.56,9.55 -7.2,11.89 -6.34,9.55 -12.65,19.09 -19.76,28.52 -7.1,8.78 -14.34,14.34 -22.2,15.85 -11.11,2.48 -21.41,-0.76 -31.75,-9.41 -10.31,-8.76 -18.96,-16.65 -24.52,-24.65 -2.44,-4 -5.56,-3.11 -8,0.8 -10.34,15.1 -20.65,26.19 -30.86,33.26 -6.44,4.03 -12.74,6.34 -18.3,6.34 -2.35,0 -3.89,0 -5.55,-0.79 -7.1,-2.31 -14.21,-5.56 -21.44,-10.31l0 0zm235.52 -125.97c6.31,-8 12.65,-16.76 19.09,-25.41 5.43,-9.55 11.89,-19.09 18.96,-27.76 1.56,-1.55 3.24,-2.44 4.8,-2.44 1.56,0 3.1,0.9 4,2.44 9.41,13.42 25.3,22.96 47.51,29.31 7.99,2.44 11.86,7.1 11.06,14.3 -0.76,8.65 -5.54,17.45 -13.41,27.75 -8,10.35 -14.3,18.2 -19.09,23.76 -5.56,5.56 -11.1,8.79 -18.2,8.79 -10.3,0 -22.96,-5.55 -38.06,-16.65 -15.1,-11.89 -20.65,-22.99 -16.65,-34.09l0 0z"/>
   <path class="fil7" d="M4575.92 3315.54c12.66,11.1 23.89,8.78 32.54,-7.87 8.76,-16.65 15.1,-28.65 18.31,-34.99 3.1,-5.56 6.34,-6.31 8.65,-3.87 2.44,2.31 3.24,5.55 2.44,9.42 -3.2,19.09 -14.31,43.64 -32.5,73.83 -19.09,29.28 -41.3,34.83 -66.6,14.97 -7.2,-7.9 -16.76,-8.65 -30.2,-3.1 -20.65,9.54 -34.82,24.51 -43.6,45.96 -8.66,20.65 -15.11,41.3 -18.2,61.02 -3.2,12.78 -4.76,25.44 -5.56,38.85 -0.76,12.8 -1.56,24.65 -4,36.52 -2.31,8.78 -6.31,13.44 -10.3,14.34 -4,0 -7.11,-2.44 -7.91,-8 -2.44,-11.09 -2.44,-22.96 -0.76,-34.85 0.76,-12.65 2.31,-25.41 3.11,-37.3 0.76,-25.41 -6.34,-44.37 -21.44,-57.81 -14.96,-13.55 -32.51,-14.31 -51.47,-1.66 -49.19,33.28 -106.22,65.02 -172.02,95.22 -65.85,30.07 -134.86,53.06 -205.46,68.92 -53.82,11.89 -106.98,18.2 -159.37,19.09 -53.06,0.8 -103.02,-7.2 -150.62,-23.09 -46.72,-15.85 -79.23,-38.85 -95.88,-68.92 -17.45,-30.95 -24.65,-70.57 -21.45,-120.52 0.8,-31.74 2.35,-63.49 4,-95.11 1.56,-32.52 3.11,-64.26 4.67,-96.01 0.89,-22.2 7.23,-45.19 18.33,-68.91 10.3,-23.89 19.72,-46.09 27.75,-67.5 4.76,-7.11 7.87,-7.11 8.63,0.89 0.79,7.1 0.79,11.86 0.79,14.21 -4.65,48.4 -8.65,97.56 -12.65,145.96 -4,48.27 -6.34,96.67 -5.54,145.04 0,26.99 6.3,48.4 19.09,65.05 12.65,15.89 30.06,29.3 52.27,40.4 44.4,22.96 95.11,34.96 152.27,36.5 57.06,0.8 110.22,0 160.17,-3.99 67.36,-4.76 133.96,-17.42 198.22,-38.86 64.26,-21.41 123.63,-51.47 178.37,-88.77 16.61,-11.89 34.06,-19.1 52.36,-22.2 17.44,-3.24 30.86,9.55 40.41,38.06 9.54,-16.65 21.44,-33.26 34.85,-49.92 13.54,-17.44 29.4,-31.76 46.85,-42.09 9.55,-5.54 18.2,-7.1 25.41,-4.76 7.1,2.44 15.76,7.2 26.06,15.87l0 0zm-235.39 202.22c7.1,-12.65 13.45,-25.41 19.76,-37.3 2.44,-6.31 5.54,-8.76 8.79,-7.85 2.31,0.76 3.07,3.86 0.76,11.09 -5.55,19.76 -12.65,38.86 -22.2,56.27 -10.3,16.65 -19.09,34.06 -26.95,52.26 -8,19.09 -8.79,30.99 -1.56,34.99 7.1,3.86 11.1,3.86 12.65,-0.8 1.56,-4 3.2,-8.76 4,-13.54 0.76,-5.55 3.11,-9.55 7.87,-11.86 3.99,-1.56 7.99,0 10.34,4.76 2.31,4.8 4,9.55 4.76,14.2 3.1,21.41 -1.55,40.54 -15.09,58.71 -10.31,13.44 -20.65,19.89 -32.52,19.09 -11.89,-0.89 -20.65,-7.2 -25.44,-19.85 -3.87,-8.8 -5.42,-17.41 -3.87,-27.76 0.76,-10.3 3.11,-20.64 6.31,-30.19 6.34,-18.2 14.34,-34.85 23.75,-51.51 9.55,-16.65 19.09,-34.06 28.65,-50.71l0 0z"/>
   <path class="fil7" d="M4760.74 3177.57c-1.56,9.54 -3.24,23.75 -5.55,42.09 -2.44,23.75 -3.2,56.26 -4,98.32 0,48.27 -0.76,81.57 -1.56,100.67 -2.44,40.4 -13.54,83.26 -33.3,127.63 -3.99,8.78 -7.2,12.65 -10.3,12.65 -1.56,0 -3.24,-0.76 -4.8,-1.56 -4,-2.31 -4.76,-7.07 -4,-14.31 4,-14.21 8,-49.95 10.35,-106.98 -4,-45.95 -4.8,-97.59 -4,-154.62 8.76,-28.51 23.09,-64.25 44.5,-106.21 5.54,-3.24 9.41,-2.44 12.65,2.31l0 0z"/>
   <path class="fil7" d="M4997.82 3329.08l6.31 0c11.89,18.2 23.75,26.86 34.1,26.06 3.99,1.69 8.74,2.48 13.54,2.48 12.65,0 25.28,-5.56 38.06,-17.45 3.87,-6.44 11.1,-13.54 21.31,-20.65 0.9,0.8 2.44,4.8 4.76,11.11 1.69,5.54 4.8,9.54 9.56,11.89 4.78,1.52 9.54,2.44 15.09,2.44 14.21,0 34.06,-12.78 60.26,-37.3 2.34,-0.8 4.79,0 6.34,1.56 1.56,1.56 1.56,4 0.76,6.31 -6.31,19.88 -18.17,36.53 -36.5,49.95 -18.2,13.54 -37.96,19.85 -57.82,19.85 -12.65,0 -24.64,-2.44 -34.85,-8 -8.76,6.34 -18.34,12.78 -26.96,18.33 -10.34,7.1 -20.65,10.31 -30.19,10.31 -3.91,0 -7.11,-0.9 -11.11,-1.66 -6.34,-2.34 -15.89,-7.1 -28.54,-13.45 -22.96,21.44 -52.27,39.65 -86.46,53.95 -11.86,4.67 -23.72,14.96 -34.06,30.86 -1.56,4 -2.31,7.11 -1.56,11.11 7.87,7.1 18.96,12.74 33.3,15.85 12.65,2.44 25.3,4 38.06,6.34l97.57 5.55 199.77 3.2c48.27,0.8 119.76,-3.2 215.67,-11.1 14.31,-2.44 35.61,-6.31 65.02,-10.31 1.56,2.31 0.8,6.31 -1.65,12.65 -10.21,8.76 -23,16.62 -39.65,23.85 -13.41,6.35 -27.71,12.65 -41.16,18.96 -42.85,15.1 -94.33,26.2 -155.38,33.3 -24.65,2.35 -79.36,6.35 -164.17,11.11 -64.25,3.99 -107.11,5.54 -128.52,5.54 -57.05,0 -104.66,-6.31 -143.52,-18.2 -22.19,-10.3 -34.85,-22.17 -38.06,-36.5 4.76,-31.75 27.85,-68.16 68.26,-108.67 22.19,-22.19 52.26,-41.95 90.33,-60.25 6.34,-4.67 13.58,-12.65 21.43,-24.55 8,-11.87 15.1,-20.65 20.65,-24.52l0 0z"/>
   <path class="fil7" d="M5586.19 3475.7c2.31,-7.1 6.31,-14.21 11.87,-21.44 12.65,-16.65 25.41,-32.52 38.06,-48.27 15.09,-18.31 30.86,-29.41 47.51,-34.96 16.65,-5.54 28.64,-2.34 37.3,9.56 0.76,4 0.76,9.54 0,17.41 -3.11,5.55 -7.11,9.54 -11.89,11.09 -4.76,0.8 -11.11,0 -18.21,-4 -7.2,-3.86 -13.55,-4.66 -19.09,-3.86 -14.96,4.76 -23.72,16.65 -26.96,34.85 0,11.87 8,20.65 23.09,26.96 5.55,2.31 10.21,3.24 15.76,3.24 10.3,0 21.41,-4 34.19,-12.78 18.2,-12.66 30.06,-19.76 34.06,-21.44 4,-2.31 7.11,-2.31 10.34,-1.52 0.76,0.76 0,4.76 -3.23,11.09 -2.31,4 -16.65,17.41 -41.96,38.82 -7.2,5.56 -19.1,14.34 -34.19,27.76 -15.85,15.09 -38.82,37.29 -68.92,67.36 -11.1,11.89 -20.65,21.44 -27.72,27.75 -6.34,0 -9.58,-1.56 -9.58,-5.56 0.8,-10.3 6.35,-20.51 15.1,-30.85 7.11,-8.75 15,-18.3 22.2,-26.95l9.55 -12.65c-8.76,-4 -13.55,-7.2 -15.86,-8.76 -5.55,-4 -10.34,-7.89 -13.54,-12.65 -5.56,-5.55 -7.87,-15.11 -7.87,-30.2l0 0z"/>
   <path class="fil7" d="M5890.59 3111.5c-1.56,9.55 -3.2,23.75 -5.54,42.08 -2.31,23.76 -3.21,56.27 -4,98.33 0,48.27 -0.76,81.57 -1.56,100.66 -2.31,40.41 -13.41,83.26 -33.27,127.63 -3.99,8.78 -7.1,12.65 -10.34,12.65 -1.56,0 -3.1,-0.76 -4.76,-1.56 -3.89,-2.31 -4.78,-7.07 -3.89,-14.3 3.89,-14.2 7.89,-49.95 10.21,-106.98 -3.87,-45.95 -4.66,-97.59 -3.87,-154.62 8.66,-28.52 22.96,-64.26 44.41,-106.22 5.54,-3.24 9.41,-2.44 12.61,2.31l0 0z"/>
   <path class="fil7" d="M6474.97 3177.57c-1.56,9.54 -3.11,23.75 -5.55,42.09 -2.31,23.75 -3.11,56.26 -4,98.32 0,48.27 -0.8,81.57 -1.56,100.67 -2.31,40.4 -13.41,83.26 -33.3,127.63 -4,8.78 -7.1,12.65 -10.3,12.65 -1.56,0 -3.11,-0.76 -4.8,-1.56 -3.87,-2.31 -4.65,-7.07 -3.87,-14.31 3.87,-14.21 7.87,-49.95 10.31,-106.98 -4,-45.95 -4.76,-97.59 -4,-154.62 8.65,-28.51 22.99,-64.25 44.4,-106.21 5.56,-3.24 9.55,-2.44 12.66,2.31l0 0z"/>
   <path class="fil7" d="M6022.25 3208.56l53.95 -61.06 4.76 0.8c23.76,21.41 44.41,38.06 62.61,49.16l4 -0.89 38.06 -45.96 6.31 1.56c22.99,20.65 41.96,37.3 57.82,49.16l-3.07 8.78c-9.55,12.66 -26.2,30.96 -49.19,54.71 -1.66,0.77 -3.2,0.77 -4.76,0.77 -2.44,0 -10.34,-4 -22.96,-11.87 -9.56,-8 -22.2,-20.65 -38.1,-38.85 -8.75,11.11 -22.95,27 -42.85,46.72 -6.31,1.69 -14.31,-1.56 -24.52,-8.63 -20.65,-15.09 -34.95,-27.75 -42.06,-38.09l0 -6.3zm-11.1 248.17l-2.34 0c-7.2,17.41 -14.31,34.83 -21.41,53.02 -8.8,19.89 -17.55,36.52 -26.96,49.17 -4,4.78 -8.79,8.78 -15.89,11.09 -7.1,2.44 -13.54,4 -20.65,6.34 -26.19,4 -64.26,12.76 -114.21,24.65 -0.76,-0.8 -1.55,-0.8 -3.11,-0.8 -1.65,-0.76 -2.44,-1.54 -2.44,-2.44 -0.76,-3.1 0,-6.3 2.44,-8.65 2.35,-2.44 4,-4.76 6.34,-7.2 34.83,-18.2 60.26,-32.41 76.91,-43.51 27.75,-17.54 51.51,-36.5 69.81,-57.16 7.87,-6.34 14.97,-15.89 21.31,-27.75 5.55,-10.35 10.3,-19.76 15.1,-30.07 9.54,-26.99 25.41,-67.49 46.84,-120.56 0.76,-2.44 3.07,-3.99 7.11,-3.99 4,0 5.54,1.54 6.31,3.99 0.76,7.91 0,17.45 -3.11,27.76 -4.76,15.09 -7.24,23.75 -8,26.99 -3.1,20.52 -4.76,35.61 -4.76,45.93 0,19.88 4.76,36.54 13.55,48.4 11.86,12.65 27.75,18.96 47.47,18.96 19.89,0 38.85,-5.55 56.4,-17.41 10.21,-7.11 18.2,-15.89 23.75,-26.2 19.76,-26.06 35.61,-38.86 47.61,-38.86 4.65,0 11.09,1.69 18.99,5.56 7.07,4 13.42,5.56 17.42,5.56 2.44,0 4.76,-0.76 7.1,-1.56 7.24,-5.56 19.09,-22.2 37.3,-49.16 3.2,-3.11 6.31,-4.8 9.54,-3.87 2.31,3.07 3.08,6.31 3.08,9.41 0,4 -2.31,11.11 -7.07,22.2 -10.35,17.41 -18.2,29.41 -23,35.74 -10.3,13.41 -20.65,22.96 -30.95,28.51 -3.87,1.56 -7.87,2.31 -11.89,2.31 -5.55,0 -11.86,-1.52 -18.96,-3.86 -10.31,-3.21 -16.65,-4.76 -19.09,-5.56 -7.11,0.8 -14.96,7.1 -22.2,19.76 -15.85,34.85 -30.82,60.26 -44.4,76.91 -22.17,26.2 -47.48,38.06 -76.12,35.75 -30.07,-2.44 -49.07,-19.88 -56.27,-53.16 -2.35,-11.89 -3.11,-30.19 -1.56,-56.26l0 0zm205.33 120.53l52.4 -61.06 3.87 0c19.85,19.76 39.74,36.41 58.71,49.95l0 6.31c-7.87,10.34 -16.65,20.55 -25.3,31.75 -8.76,11.11 -18.31,19.76 -26.96,26.07 -4,0.79 -13.54,-3.87 -28.65,-13.42 -8.65,-6.3 -19.75,-17.41 -34.06,-33.3l0 -6.3z"/>
  </g>
 </g>
</svg>
